# xmcd CD database file
#
# Track frame offsets:
#	150
#	42780
#	62245
#	85143
#	102390
#	107302
#	124332
#	136664
#	158156
#	176208
#	196950
#	211550
#	228390
#
# Disc length: 3493 seconds
#
# Revision: 0
# Processed by: cddbd v1.4PL0 Copyright (c) Steve Scherf et al.
# Submitted via: CDex 1.50Beta7
#
DISCID=a70da30d
DTITLE=Bandari - Dream Of Land
DYEAR=2002
DGENRE=New Age
TTITLE0=Dream of Land
TTITLE1=Sound of Heaven
TTITLE2=Eyes Star
TTITLE3=Walks
TTITLE4=Flying
TTITLE5=Eternay City
TTITLE6=Coral Sea
TTITLE7=Sleep Well
TTITLE8=Deep River
TTITLE9=Behind The Moon
TTITLE10=Wonderful Land Part1
TTITLE11=Sunrise
TTITLE12=Wonderful Land Part2
EXTD=YEAR: 2002
EXTT0=
EXTT1=
EXTT2=
EXTT3=
EXTT4=
EXTT5=
EXTT6=
EXTT7=
EXTT8=
EXTT9=
EXTT10=
EXTT11=
EXTT12=
PLAYORDER=
